<svg xmlns="http://www.w3.org/2000/svg" width="256" height="256" fill="none"><path fill="#C5EAEC" d="M151.809 239.665c13.714-6.242 27.639-12.285 39.994-20.716 26.343-17.955 44.706-46.169 49.868-76.609 5.161-30.44-2.943-62.708-22.004-87.64-6.009-7.845-13.103-15.045-21.593-20.429-8.627-5.471-18.463-8.965-28.3-12.074-17.503-5.52-35.705-10.022-54.131-9.326-25.507.957-50.142 12.161-68.056 29.458-17.915 17.296-29.21 40.35-33.175 64.324-4.4 26.634.212 54.687 13.776 78.362 13.564 23.676 35.394 45.15 62.858 51.827 21.455 5.21 45.454 9.799 60.763 2.823z"/><path fill="#fff" d="M48.114 103.693l9.463-37.443h135.402l9.099 37.443"/><path fill="#fff" d="M57.63 102.391v87.017h132.345v-84.42"/><path fill="#FE5E53" d="M192.355 69.617H72.225a9.832 9.832 0 00-5.995 2.025 9.534 9.534 0 00-3.449 5.225l-7.286 28.845a9.23 9.23 0 00-.256 3.128 18.712 18.712 0 003.791 9.605 19.216 19.216 0 008.355 6.226 19.571 19.571 0 0010.437.999 19.388 19.388 0 009.421-4.525 9.764 9.764 0 016.402-2.382c2.359 0 4.636.847 6.403 2.382a19.44 19.44 0 0012.842 4.825c4.74 0 9.313-1.718 12.843-4.825a9.765 9.765 0 016.402-2.382c2.358 0 4.636.847 6.402 2.382a19.443 19.443 0 0012.843 4.825c4.74 0 9.313-1.718 12.843-4.825a9.76 9.76 0 016.402-2.382c2.358 0 4.635.847 6.402 2.382a19.386 19.386 0 009.429 4.524c3.509.621 7.125.272 10.444-1.007a19.218 19.218 0 008.353-6.24 18.708 18.708 0 003.778-9.617 9.257 9.257 0 00-.238-3.044l-6.998-28.805a9.532 9.532 0 00-3.424-5.278 9.83 9.83 0 00-6.016-2.06z"/><path fill="#2E2E2E" d="M67.364 121.73a18.57 18.57 0 006.922-1.626 17.984 17.984 0 005.675-4.042 17.327 17.327 0 003.599-5.783 16.877 16.877 0 001.02-6.592l2.024 1.988a90.32 90.32 0 00-9.62-1.135c-3.207-.23-6.413-.336-9.624-.363-3.212-.026-6.414.036-9.62.261-3.234.191-6.45.605-9.625 1.237l2.023-1.988a16.214 16.214 0 00.9 6.627 17.127 17.127 0 003.558 5.929 18.283 18.283 0 005.738 4.14c.558.22 1.107.472 1.678.667.571.194 1.165.327 1.754.442.59.114 1.2.154 1.799.212l1.799.026zm0 1.728l-1.966-.164c-.647-.097-1.29-.234-1.938-.331l-1.911-.442c-.63-.181-1.25-.389-1.88-.583a20.387 20.387 0 01-6.747-4.056 20.748 20.748 0 01-4.776-6.362c-.26-.614-.54-1.233-.787-1.86a15.344 15.344 0 01-.612-1.935 32.524 32.524 0 01-.418-1.993l-.234-2.032v-.172a1.64 1.64 0 01.358-1.229 1.714 1.714 0 011.688-.591 70.789 70.789 0 009.603 1.241c3.206.225 6.413.287 9.62.261 3.207-.027 6.413-.137 9.625-.363a90.32 90.32 0 009.62-1.135 1.754 1.754 0 011.437.383 1.692 1.692 0 01.596 1.34v.265a20.518 20.518 0 01-1.912 7.877 20.54 20.54 0 01-4.736 6.486 20.64 20.64 0 01-6.813 4.153 20.674 20.674 0 01-7.817 1.246v-.004z"/><path fill="#2E2E2E" d="M105.866 121.527a18.395 18.395 0 006.859-1.568 17.884 17.884 0 005.654-3.976 17.286 17.286 0 003.625-5.744 16.857 16.857 0 001.079-6.565l2.024 1.988c-3.207-.442-6.414-.676-9.625-.883-3.211-.208-6.413-.266-9.625-.292-3.211-.027-6.413 0-9.624.19-3.225.146-6.438.47-9.625.972l2.024-1.988a16.811 16.811 0 001.043 6.609 17.328 17.328 0 003.598 5.744 17.934 17.934 0 005.663 4.007c.548.212 1.088.441 1.646.645.558.203 1.133.34 1.704.481.572.142 1.165.226 1.754.314.59.088 1.219.044 1.826.066zm0 2.134c-.665-.044-1.326-.097-1.987-.124l-1.984-.234c-.656-.115-1.304-.278-1.956-.415-.652-.137-1.273-.402-1.912-.605a20.736 20.736 0 01-6.823-4.189 20.562 20.562 0 01-4.726-6.516 20.598 20.598 0 01-1.88-7.891v-.243a1.69 1.69 0 01.466-1.224c.315-.332.75-.527 1.211-.543.12-.004.238.003.356.022 3.187.502 6.4.826 9.624.972 3.207.168 6.414.217 9.625.19 3.211-.026 6.413-.11 9.625-.291 3.211-.182 6.413-.442 9.624-.884a1.83 1.83 0 01.761.062 1.794 1.794 0 011.117.971c.104.231.157.481.155.734v.212a20.565 20.565 0 01-1.848 7.904 20.627 20.627 0 01-4.718 6.539 20.61 20.61 0 01-6.801 4.221 20.905 20.905 0 01-7.929 1.337v-.005z"/><path fill="#2E2E2E" d="M144.343 121.428a18.203 18.203 0 006.89-1.391 17.437 17.437 0 005.748-3.932 16.716 16.716 0 003.652-5.788 15.7 15.7 0 00.931-6.627l2.024 1.988c-3.207-.402-6.414-.614-9.625-.795-3.211-.181-6.413-.261-9.625-.3-3.211-.04-6.413-.036-9.624.128-3.226.127-6.44.451-9.625.967l2.024-1.988c-.17 2.249.148 4.507.931 6.627a16.716 16.716 0 003.652 5.788 17.437 17.437 0 005.748 3.932 18.206 18.206 0 006.899 1.391zm0 2.333a21.077 21.077 0 01-7.835-1.489 21.286 21.286 0 01-6.746-4.263 21.23 21.23 0 01-4.691-6.481 21.887 21.887 0 01-1.997-7.842v-.19a1.689 1.689 0 01.425-1.238 1.752 1.752 0 011.613-.56c3.185.516 6.399.839 9.624.967 3.207.164 6.414.164 9.625.128a232.6 232.6 0 009.625-.3c3.211-.168 6.413-.398 9.624-.795a1.827 1.827 0 011.469.462c.195.18.346.399.444.643.098.244.139.506.12.768v.115a21.866 21.866 0 01-1.997 7.842 21.206 21.206 0 01-4.709 6.485 21.26 21.26 0 01-6.746 4.264 21.079 21.079 0 01-7.848 1.484z"/><path fill="#2E2E2E" d="M182.834 121.293a16.716 16.716 0 006.89-1.259 17.473 17.473 0 005.707-3.977 16.738 16.738 0 003.625-5.774c.79-2.11 1.128-4.357.994-6.6l2.024 1.988c-3.207-.442-6.414-.685-9.625-.884-3.211-.199-6.413-.243-9.624-.247a182.88 182.88 0 00-9.625.225c-3.211.163-6.414.411-9.625.884l2.024-1.989a16.646 16.646 0 001.142 6.581 16.875 16.875 0 003.643 5.635 17.735 17.735 0 005.645 3.928 18.194 18.194 0 006.805 1.489zm0 2.602c-5.499.104-10.815-1.941-14.779-5.686-4.02-3.815-6.351-9.029-6.49-14.518v-.229a1.72 1.72 0 01.49-1.233 1.786 1.786 0 011.232-.535c.104-.008.207-.008.311 0 3.206.478 6.413.716 9.624.884 3.212.168 6.414.234 9.625.225 3.211-.008 6.413-.084 9.625-.247 3.211-.164 6.413-.411 9.624-.884a1.812 1.812 0 011.442.442 1.76 1.76 0 01.591 1.365v.181a21.362 21.362 0 01-1.938 7.869 21.157 21.157 0 01-4.714 6.49 21.211 21.211 0 01-6.782 4.224 22.9 22.9 0 01-7.861 1.656v-.004z"/><path fill="#2E2E2E" d="M46.154 103.212L56.47 65.977l.036-.133a.982.982 0 01.4-.554c.196-.132.434-.19.67-.166 2.814.25 5.64.34 8.465.27l8.464-.062 16.924-.124 33.849-.256 33.852-.314 33.853-.384h.135c.443-.005.874.147 1.213.428.339.28.565.67.636 1.1.26 1.587.548 3.168.832 4.754.283 1.587.562 3.168.872 4.741.612 3.154 1.187 6.318 1.826 9.463.639 3.146 1.273 6.296 1.925 9.442a67.194 67.194 0 002.46 9.317.787.787 0 01-.033.613.81.81 0 01-.464.41.83.83 0 01-.623-.032.807.807 0 01-.458-.62 67.205 67.205 0 00-2.092-9.406c-.863-3.092-1.727-6.185-2.622-9.277-.895-3.093-1.799-6.186-2.698-9.278-.45-1.542-.927-3.093-1.404-4.617-.476-1.524-.944-3.093-1.443-4.608l1.97 1.529-33.853-.385-33.853-.314-33.853-.256-16.955-.097-8.465-.062c-2.824-.07-5.65.02-8.464.27l1.106-.853-8.581 37.65a1.97 1.97 0 01-.322.709 2.034 2.034 0 01-2.102.789 2.045 2.045 0 01-1.264-.88 1.953 1.953 0 01-.26-1.501l.004-.071z"/><path fill="#2E2E2E" d="M123.749 103.691c.175-1.554.261-3.116.257-4.679a32.655 32.655 0 00-.221-4.679 30.626 30.626 0 01-.49-4.678l.085-4.679c.075-3.12.188-6.24.338-9.362.166-3.119.35-6.238.656-9.362a.71.71 0 01.231-.466.73.73 0 01.983 0 .708.708 0 01.23.466c.306 3.12.49 6.239.657 9.362.166 3.124.261 6.239.337 9.362l.085 4.679a30.5 30.5 0 01-.49 4.678 32.654 32.654 0 00-.22 4.68 40.873 40.873 0 00.256 4.678 1.328 1.328 0 01-.279.984 1.36 1.36 0 01-.906.502 1.372 1.372 0 01-1.002-.274 1.325 1.325 0 01-.511-.89 1.334 1.334 0 01.004-.322zM85.133 103.437c.85-3.066 1.525-6.15 2.137-9.247a248.54 248.54 0 001.641-9.308c.495-3.124.9-6.23 1.25-9.358.352-3.128.63-6.264.734-9.423a1.12 1.12 0 01.364-.793 1.16 1.16 0 01.828-.307 1.174 1.174 0 01.806.357 1.134 1.134 0 01.287 1.03c-.716 3.092-1.25 6.185-1.714 9.278-.463 3.092-.89 6.256-1.2 9.388-.311 3.132-.613 6.265-.806 9.415-.193 3.15-.346 6.3-.31 9.476a1.99 1.99 0 01-.585 1.426c-.38.38-.897.597-1.44.602a2.06 2.06 0 01-1.45-.574 1.99 1.99 0 01-.541-1.962zM161.088 103.885c-.108-3.159-.418-6.291-.774-9.419-.355-3.128-.823-6.238-1.291-9.353-.467-3.115-.98-6.22-1.515-9.322a208.156 208.156 0 00-1.799-9.278 1.965 1.965 0 01.23-1.56 2.047 2.047 0 012.129-.915c.271.053.527.16.755.313.227.153.421.35.568.579.147.229.246.485.289.753.022.106.035.214.041.322.148 3.155.395 6.291.661 9.433.265 3.14.589 6.269.931 9.397.341 3.128.692 6.256 1.16 9.37.468 3.115.967 6.221 1.678 9.305a1.52 1.52 0 01-.623 1.587 1.58 1.58 0 01-1.731.042 1.534 1.534 0 01-.687-.958 1.633 1.633 0 01-.022-.296zM165.724 188.845a5.491 5.491 0 013.031-.884c1.012-.039 2.026 0 3.032.12 2.015.184 4.04.234 6.062.15.504 0 1.012 0 1.516.044.508.029 1.014.085 1.516.168.997.202 2.014.292 3.031.27a23.408 23.408 0 003.031-.398 14.702 14.702 0 003.032-.884l-2.024 1.988c.508-5.566.737-11.133.872-16.704.068-2.783.09-5.567.126-8.35l.086-8.35c.045-5.567.064-11.135.058-16.705 0-5.566-.049-11.133-.157-16.704a1.016 1.016 0 01.607-1.017 1.055 1.055 0 011.179.216 1.027 1.027 0 01.296.761v.04a939.17 939.17 0 00-.157 16.704c-.009 5.571 0 11.134.058 16.705l.086 8.35c.036 2.783.058 5.567.126 8.35.134 5.567.364 11.133.872 16.704l.05.522a1.429 1.429 0 01-.341 1.065 1.495 1.495 0 01-1.009.516 1.525 1.525 0 01-.728-.114 14.64 14.64 0 00-3.032-.884c-1-.199-2.013-.332-3.031-.398a13.767 13.767 0 00-3.031.27c-.502.082-1.008.138-1.516.168-.504.026-1.012.026-1.516.044a45.769 45.769 0 00-6.062.15c-1.006.119-2.02.159-3.032.119a5.49 5.49 0 01-3.031-.883.678.678 0 01-.184-.95.685.685 0 01.184-.199z"/><path fill="#2E2E2E" d="M58.194 119.999c.494 5.783.697 11.566.818 17.354l.063 4.338.027 4.339.04 8.677c0 5.784-.018 11.569-.053 17.354a931.515 931.515 0 01-.293 17.354l-1.174-1.153c9.1-.095 18.2-.064 27.3.092 4.552.115 9.099.354 13.65.376h3.414c1.138 0 2.276-.031 3.413-.062 1.138-.031 2.276-.079 3.414-.137 1.138-.057 2.276-.115 3.414-.19 4.551-.291 9.098-.685 13.65-.822 1.136-.035 2.274-.06 3.413-.075 1.139-.024 2.279.01 3.414.102 2.276.194 4.551.632 6.827.751 4.552.163 9.099.221 13.65.252 4.552.031 9.099 0 13.65-.15.266.007.519.114.708.299a1.015 1.015 0 01.043 1.406 1.052 1.052 0 01-.688.34h-.063a365.484 365.484 0 00-13.65-.15c-4.551.035-9.098.093-13.65.252-2.276.119-4.551.561-6.827.751a33.815 33.815 0 01-3.414.101c-1.136 0-2.274-.025-3.413-.075-4.552-.137-9.099-.53-13.65-.821a139.405 139.405 0 00-3.414-.19c-1.138-.049-2.276-.106-3.414-.137a143.789 143.789 0 00-3.413-.062c-1.138-.005-2.276-.022-3.414 0-4.551 0-9.098.256-13.65.375-9.1.159-18.2.19-27.3.093a1.196 1.196 0 01-.818-.334 1.154 1.154 0 01-.355-.797 892.856 892.856 0 01-.293-17.354c-.05-5.788-.063-11.566-.054-17.354l.04-8.677.028-4.338.063-4.339c.117-5.783.324-11.566.818-17.354a.56.56 0 01.185-.367.578.578 0 01.389-.148c.144 0 .282.052.388.148a.56.56 0 01.185.367l-.004-.035z"/><path fill="#2E2E2E" d="M74.623 189.409l-.117-53.949a1.17 1.17 0 01.353-.843 1.21 1.21 0 01.857-.35l32.274-.115c.35 0 .687.134.938.373.252.239.399.565.411.909v.026c.036 2.249.036 4.498.045 6.742.009 2.244 0 4.498 0 6.742-.027 4.497-.045 8.991-.117 13.488l-.112 6.742c-.05 2.249-.068 4.498-.144 6.742-.135 4.497-.338 8.991-.814 13.488a.182.182 0 01-.185.181.186.186 0 01-.13-.053.178.178 0 01-.054-.128c-.472-4.497-.679-8.991-.814-13.488-.072-2.249-.095-4.498-.144-6.742l-.112-6.742c-.077-4.497-.09-8.991-.117-13.488a420.882 420.882 0 010-6.742c0-2.249 0-4.498.045-6.742l1.349 1.325-32.301-.132 1.214-1.193-.117 53.949c0 .285-.115.56-.321.762a1.109 1.109 0 01-1.552 0 1.07 1.07 0 01-.322-.762h-.013zM123.664 166.127a681.23 681.23 0 010-15.463c.063-5.139.202-10.215.364-15.212v-.039c.01-.269.125-.524.323-.71.197-.187.46-.29.734-.289l48.398.217a.849.849 0 01.568.222.823.823 0 01.264.542v.057c.175 2.439.274 4.86.36 7.317.085 2.456.13 4.859.153 7.316.022 2.456.027 4.86 0 7.316l-.045 3.658-.077 3.658v.049c-.007.318-.142.62-.375.84a1.234 1.234 0 01-.87.335c-4.107-.079-8.199-.194-12.292-.239-4.093-.044-8.199 0-12.328 0l-12.471.151c-4.165.092-8.388.163-12.706.274zm2.86-2.81c3.751.115 7.592.185 11.465.256 3.872.071 7.785.119 11.725.15 3.939.031 7.893.071 11.869 0 3.975-.07 7.947-.159 11.909-.238l-1.25 1.228-.077-3.658-.045-3.658v-7.317c0-2.456.081-4.859.153-7.316.072-2.456.185-4.86.36-7.316l.837.822-48.398.216 1.057-1.038c.162 4.758.301 9.432.364 14.054.063 4.621.09 9.216.036 13.819l-.005-.004z"/><path fill="#3FB9BE" d="M100.775 162.432h-17.44a1.68 1.68 0 01-1.26-.562 1.618 1.618 0 01-.392-1.302c.94-6.512 2.132-13.36 1.35-17.579a1.605 1.605 0 01.325-1.31 1.68 1.68 0 011.217-.621l16.079-.884c.237-.012.475.025.696.11a1.658 1.658 0 01.962.971c.08.22.111.454.092.687a134.352 134.352 0 00.027 18.736 1.616 1.616 0 01-.44 1.231 1.668 1.668 0 01-1.216.523z"/><path fill="#F3991F" d="M98.438 172.154c1.435 0 2.599-1.143 2.599-2.554 0-1.41-1.164-2.553-2.6-2.553-1.435 0-2.6 1.143-2.6 2.553 0 1.411 1.165 2.554 2.6 2.554zM156.82 159.42a75.936 75.936 0 00-15.679 0 2.053 2.053 0 01-1.437-.585 1.983 1.983 0 01-.596-1.412c.518-1.273.279-4.449 0-7.727a1.973 1.973 0 01.596-1.412 2.054 2.054 0 011.437-.585 44.264 44.264 0 0015.679 0c.54 0 1.058.211 1.44.586.382.375.597.884.597 1.415v7.727a1.988 1.988 0 01-1.259 1.842c-.247.1-.511.151-.778.151z"/><path fill="#2E2E2E" d="M141.744 147.544l5.797-8.734a.644.644 0 01.487-.288.643.643 0 01.288.04.646.646 0 01.242.159l8.131 8.611a.52.52 0 01-.037.722.538.538 0 01-.736.002l-8.334-8.416 1.03-.075-6.454 8.279a.275.275 0 01-.378.071.267.267 0 01-.072-.371h.036z"/><path fill="#fff" d="M98.55 143.233a33.712 33.712 0 01-2.698 3.614 57.298 57.298 0 01-2.987 3.327 52.663 52.663 0 01-3.215 3.093 37.69 37.69 0 01-3.49 2.854.303.303 0 01-.383-.024.287.287 0 01-.04-.374 37.105 37.105 0 012.743-3.534c.963-1.14 1.979-2.209 3.022-3.292a53.377 53.377 0 013.252-3.092 34.325 34.325 0 013.558-2.793.153.153 0 01.1-.031.15.15 0 01.145.134.15.15 0 01-.025.101l.018.017zM100.353 148.894a23.958 23.958 0 01-2.132 3.093 41.276 41.276 0 01-2.447 2.77 45.12 45.12 0 01-2.667 2.562 27.027 27.027 0 01-2.954 2.293.306.306 0 01-.37-.036.294.294 0 01-.053-.361 26.75 26.75 0 012.199-3.005 45.03 45.03 0 012.487-2.734 42.692 42.692 0 012.699-2.528 24.417 24.417 0 013.017-2.235.159.159 0 01.236.106.163.163 0 01-.015.097v-.022z"/></svg>